<svg viewBox="0 0 800 800" width="800" height="800" xmlns="http://www.w3.org/2000/svg"><defs><linearGradient id="a" x1="266.4" x2="776.7" y1="386.8" y2="465.92" gradientTransform="translate(-.00002 .000005)" gradientUnits="userSpaceOnUse"><stop stop-color="#c227c1" offset="0"/><stop stop-color="#1770ce" offset="1"/></linearGradient><linearGradient id="c" x1="748.54" x2="204.42" y1="610.98" y2="17.602" gradientUnits="userSpaceOnUse"><stop stop-color="#0b3081" offset="0"/><stop stop-color="#d145e8" offset="1"/></linearGradient><linearGradient id="b" x1="723.45" x2="643.83" y1="553.72" y2="693.45" gradientTransform="matrix(1.0015 0 0 .67527 -1.0522 225.23)" gradientUnits="userSpaceOnUse"><stop stop-color="#0000e8" stop-opacity=".024876" offset="0"/><stop stop-color="#7562b3" stop-opacity=".53234" offset="1"/></linearGradient></defs><path d="M586.4 586.4V293.6H560V320h-26.4v26.4h-27.2v27.2H480V400h-26.4v26.4H346.4V400H320v-26.4h-26.4v-27.2h-27.2V160h27.2v26.4H320v27.2h26.4V240h27.2v26.4h52.8V240h27.2v-26.4H480v-27.2h26.4V160h27.2v-26.4H560v-27.2h26.4V80h107.2v26.4H720v587.2h-26.4z" fill="url(#a)"/><path d="M586.74 524.12l132.8 43.376.502 126.1h-26.44l-107.36-72.389z" fill="url(#b)"/><path d="M693.6 693.6V720H106.4v-26.4H80V106.4h26.4V80h107.2v506.4h372.8" fill="url(#c)"/></svg>